<svg width="1196" height="1219" viewBox="0 0 1196 1219" fill="none" xmlns="http://www.w3.org/2000/svg">
<path fill-rule="evenodd" clip-rule="evenodd" d="M447 0L353 89V195.532L293 135.532V37H199V52.2671L137.899 113.368L199 174.468V710L293 803V268.468L353 328.468V997.063L133 776.673V466L39 557L39 738L0.435074 776.607H3.05176e-05L0.217545 776.825L0 777.043H0.435089L353 1130L447 1219V1002.5L585.5 1141L731 995.5V1219L825 1130V800.468L934.536 910.004L1000.54 844H1001V843.54L1001 843.536L1001 843.532V457.979L907 424V749.532L825 667.532V221.752L1085 460.502V891L1179 786V452.895L1195.92 434.744L825 89L731 0V573.532L447 289.532V0ZM731 856V706.468L447 422.468V863L585.5 1001.5L731 856Z" fill="black"/>
</svg>
